<svg xmlns="http://www.w3.org/2000/svg" width="150" height="150"><defs><clipPath id="a"><path d="M0 0h150v150H0z"/></clipPath></defs><g clip-path="url(#a)"><path d="M27.788 24.378c34.755-35.176 110.466-6.362 111.024 42.57s-26.2 85.96-85 69.383S7.699 44.709 27.788 24.378z" fill="#baa389" opacity=".1"/><path d="M58.834 94.884H46.651V73.55a3.177 3.177 0 013.177-3.177h5.829a3.177 3.177 0 013.177 3.177v21.334z" fill="#bfc1a4"/><path d="M58.835 96.717H46.651a1.833 1.833 0 01-1.833-1.833V73.55a5.016 5.016 0 015.011-5.011h5.829a5.016 5.016 0 015.011 5.011v21.334a1.833 1.833 0 01-1.834 1.833zm-10.35-3.667h8.517v-19.5a1.346 1.346 0 00-1.344-1.344h-5.829a1.346 1.346 0 00-1.344 1.344z" fill="#222c25"/><path d="M98.431 94.884H86.248V66.495a3.177 3.177 0 013.177-3.177h5.829a3.177 3.177 0 013.177 3.177v28.388z" fill="#e1daa1"/><g fill="#222c25"><path d="M98.431 96.717H86.248a1.834 1.834 0 01-1.833-1.833V66.496a5.016 5.016 0 015.01-5.011h5.829a5.016 5.016 0 015.011 5.011v28.388a1.833 1.833 0 01-1.834 1.833zm-10.35-3.667h8.516V66.496a1.346 1.346 0 00-1.344-1.344h-5.829a1.345 1.345 0 00-1.344 1.344v26.555z"/><path d="M66.449 96.717a1.833 1.833 0 01-1.833-1.833V58.497h-3.787a1.833 1.833 0 01-1.549-2.813l11.708-18.516a1.833 1.833 0 013.1 0l11.711 18.516a1.833 1.833 0 01-1.55 2.813h-3.783v24.131a1.833 1.833 0 11-3.667 0V56.664a1.833 1.833 0 011.833-1.833h2.288l-8.38-13.252-8.38 13.252h2.288a1.833 1.833 0 011.833 1.833v38.22a1.833 1.833 0 01-1.832 1.833z"/><path d="M77.325 96.717H41.833a1.833 1.833 0 110-3.667h35.492a1.833 1.833 0 110 3.667zM103.25 96.717h-17a1.833 1.833 0 110-3.667h17a1.833 1.833 0 110 3.667z"/></g></g></svg>