<svg xmlns="http://www.w3.org/2000/svg" width="150" height="150"><defs><clipPath id="a"><path d="M0 0h150v150H0z"/></clipPath></defs><g clip-path="url(#a)"><path d="M24.087 120.926C-9.837 84.975 21.597 10.348 70.5 11.503s84.957 29.182 66.339 87.343-93.144 42.86-112.752 22.08z" fill="#baa389" opacity=".1"/><path d="M85.598 70.654a11.441 11.441 0 00-.3-2.6l2.459-2-2.815-4.876-2.962 1.132a11.424 11.424 0 00-4.5-2.6l-.5-3.128h-5.63l-.5 3.128a11.418 11.418 0 00-4.5 2.6l-2.961-1.132-2.815 4.876 2.458 2a11.52 11.52 0 000 5.2l-2.458 2 2.815 4.876 2.962-1.132a11.414 11.414 0 004.5 2.6l.5 3.128h5.63l.5-3.128a11.415 11.415 0 004.5-2.6l2.962 1.132 2.815-4.876-2.459-2a11.449 11.449 0 00.299-2.6zm-11.436 4.4a4.4 4.4 0 114.4-4.4 4.4 4.4 0 01-4.4 4.4z" fill="#e1daa1"/><g fill="#222c25"><path d="M76.977 86.633h-5.63a1.905 1.905 0 01-1.881-1.6l-.322-2.013a13.443 13.443 0 01-3.177-1.837l-1.906.729a1.9 1.9 0 01-2.33-.827l-2.815-4.876a1.905 1.905 0 01.449-2.431l1.583-1.286a13.425 13.425 0 010-3.67l-1.583-1.286a1.9 1.9 0 01-.449-2.431l2.815-4.876a1.905 1.905 0 012.33-.827l1.907.729a13.443 13.443 0 013.176-1.836l.322-2.013a1.9 1.9 0 011.881-1.6h5.63a1.905 1.905 0 011.881 1.6l.322 2.014a13.436 13.436 0 013.176 1.836l1.907-.729a1.905 1.905 0 012.33.827l2.815 4.876a1.905 1.905 0 01-.449 2.431l-1.583 1.286a13.452 13.452 0 010 3.67l1.583 1.286a1.905 1.905 0 01.449 2.431l-2.815 4.876a1.906 1.906 0 01-2.33.827l-1.907-.729a13.44 13.44 0 01-3.176 1.837l-.322 2.013a1.905 1.905 0 01-1.881 1.599zm-4.006-3.81h2.381l.244-1.524a1.9 1.9 0 011.33-1.522 9.566 9.566 0 003.752-2.17 1.905 1.905 0 011.984-.39l1.444.551 1.19-2.062-1.2-.973a1.905 1.905 0 01-.654-1.911 9.614 9.614 0 000-4.339 1.905 1.905 0 01.654-1.911l1.2-.973-1.19-2.061-1.445.552a1.906 1.906 0 01-1.983-.39 9.566 9.566 0 00-3.752-2.17 1.9 1.9 0 01-1.33-1.522l-.244-1.524h-2.381l-.244 1.524a1.9 1.9 0 01-1.33 1.523 9.568 9.568 0 00-3.753 2.169 1.9 1.9 0 01-1.983.39l-1.444-.552-1.191 2.062 1.2.973a1.905 1.905 0 01.655 1.909 9.618 9.618 0 000 4.343 1.905 1.905 0 01-.654 1.909l-1.2.973 1.191 2.062 1.444-.552a1.905 1.905 0 011.984.39 9.561 9.561 0 003.753 2.17 1.9 1.9 0 011.33 1.523zm1.19-5.864a6.305 6.305 0 116.305-6.305 6.312 6.312 0 01-6.304 6.305zm0-8.8a2.5 2.5 0 102.495 2.5 2.5 2.5 0 00-2.494-2.501zM74.162 105.227a1.905 1.905 0 01-1.905-1.9v-9.233a1.905 1.905 0 013.81 0v9.233a1.9 1.9 0 01-1.905 1.9z"/><path d="M65.414 101.408a1.905 1.905 0 01-1.905-1.905v-4.382a27.166 27.166 0 1125.278-2.101 1.905 1.905 0 01-2.054-3.209 23.349 23.349 0 10-20.658 2.23 1.905 1.905 0 011.245 1.787v5.675a1.905 1.905 0 01-1.906 1.905z"/></g><path d="M65.414 99.02v3.764a3.951 3.951 0 003.951 3.951h9.594a3.951 3.951 0 003.951-3.951V99.02z" fill="#bfc1a4"/><g fill="#222c25"><path d="M78.959 108.641h-9.594a5.863 5.863 0 01-5.856-5.856v-3.764a1.905 1.905 0 011.905-1.905h17.5a1.905 1.905 0 011.905 1.905v3.764a5.863 5.863 0 01-5.86 5.856zm-11.64-7.715v1.859a2.048 2.048 0 002.046 2.046h9.594a2.048 2.048 0 002.046-2.046v-1.859z"/><path d="M78.258 110.546h-8.192a1.905 1.905 0 110-3.81h8.192a1.905 1.905 0 110 3.81z"/></g></g></svg>