<?xml version="1.0" encoding="utf-8"?>
<!-- Generator: Adobe Illustrator 16.0.0, SVG Export Plug-In . SVG Version: 6.00 Build 0)  -->
<!DOCTYPE svg PUBLIC "-//W3C//DTD SVG 1.1//EN" "http://www.w3.org/Graphics/SVG/1.1/DTD/svg11.dtd">
<svg version="1.1" id="Layer_1" xmlns="http://www.w3.org/2000/svg" xmlns:xlink="http://www.w3.org/1999/xlink" x="0px" y="0px"
	 width="1024px" height="768px" viewBox="0 0 1024 768" enable-background="new 0 0 1024 768" xml:space="preserve">
<title>Illustrations/coffee</title>
<desc>Created with Sketch.</desc>
<g id="Illustrations_x2F_coffee">
	<path id="Accent" fill="#BDC488" d="M285.204,455.105c4.668-3.182,14.216-14.571,19.218-17.204
		c11.123-5.853,60.674-17.358,62.286-18.039c2.454-1.035,18.396-4.652,27.683-6.938c21.81-5.367,99.966-40.036,120.565-48.925
		c2.63,6.92,24.34,37.469,20.615,40.599c-12.262,10.308-34.24,23.142-48.444,30.528c-11.488,5.974-23.656,10.917-35.94,14.953
		c-13.946,4.584-23.519,9.498-37.418,14.187c-13.675,4.612,2.667,19.039,9.69,22.02c7.877,3.345,20.078,5.042,28.127,7.94
		c-14.171,22.024-26.072,48.755-28.452,75.138c-0.573,6.35-5.414,12.171-13.286,10.271c-4.063-0.981-41.547-5.975-47.658-7.367
		c-40.803-9.306-114.052-58.034-95.189-108.001C271.321,466.262,281.187,457.844,285.204,455.105z"/>
	<g id="Ink" transform="translate(54.000000, 30.000000)">
		<path id="ink-layer" fill="#2F3937" d="M254.031,160c3.048-0.257,10.93-6.346,6.794-9.426
			C256.652,147.467,253.654,157.88,254.031,160 M95.245,183.353c0.797-0.14,0.449-4.501-0.805-5.058
			c-3.959-1.757-4.294,4.849-4.391,6.617c-0.121,2.231-0.4,8.516,4.414,6.793C97.197,190.727,95.501,185.025,95.245,183.353
			 M329,203.723c-0.107,3.893,7.756,11.376,10.688,6.887C342.152,206.838,329.202,195.976,329,203.723 M51,115.944
			c2.278,5.811,13.545-2.109,13.964-6.372C65.823,100.843,50.882,110.136,51,115.944 M145,141c5.247-0.431,12.151-7.102,17.21-9.594
			c3.424-1.686,12.741-3.696,13.754-7.525c0.882-3.327-14.926,3.794-16.275,4.427C153.487,131.213,147.896,134.525,145,141
			 M538.896,95c4.183-3.233,9.266-5.32,14.628-5.183c2.677,0.068,8.262,1.743,8.472-2.887c0.342-7.529-23.302,1.653-26.997,3.13
			C536.299,91.708,537.599,93.354,538.896,95 M277.999,388.387c-3.067-5.095-8.586-8.04-12.735-12.387
			c1.521,7.137-1.908,13.484-4.265,20C266.666,393.462,272.332,390.925,277.999,388.387 M810.805,497
			c1.691-5.658,3.384-11.286,5.361-16.858c2.212-6.239,3.312-6.779-1.983-11.142c-4.394,8.306-8.788,16.611-13.184,24.918
			C804.128,495.248,807.393,496.542,810.805,497 M355.999,87.365c-5.818-6.558-33.086-6.97-29.712,7.504
			c1.178,5.054,7.882-0.315,12.081-1.493C342.536,92.207,354.338,92.051,355.999,87.365 M354.999,180.215
			c-0.705-1.674-2.113-7.714-4.203-8.19c-2.036-0.464-10.069,5.872-11.58,6.839c-7.532,4.827-14.876,10.02-22.217,15.137
			c2.811,0,5.363-1.001,8.157-1.022c3.319-0.028,5.701,1.335,8.938,0.557C341.049,191.865,349.121,184.158,354.999,180.215
			 M362.536,30.57c0.653-3,34.745,6.005,38.842,7.654c2.232,0.897,13.75,6.884,11.274-2.139c-1.408-5.14-14.718-9.057-18.982-10.466
			c-10.843-3.579-22.274-6.125-33.82-5.534c-2.242,0.114-19.221,1.094-12.131,7.918C350.162,30.354,358.919,29.613,362.536,30.57
			 M369.999,442.713c6.352,3.125,12.837,5.516,19.476,7.96c2.95,1.085,7.544,3.928,10.798,3.214
			c2.665-0.587,3.519-4.645,4.918-7.361c5.118-9.938,11.23-17.955,18.809-26.148c-3.519-2.566-21.381,8.754-25.801,10.426
			c-4.425,1.672-8.6,3.357-12.93,5.356C381.191,438.041,373.146,439.724,369.999,442.713 M482.463,358
			c9.257-4.188,18.031-11.617,25.623-18.268c8.718-7.637,16.531-15.64,22.913-25.521c-3.84,0.196-12.318,12.548-12.413-0.899
			c-0.049-6.861,9.353-13.618,12.271-19.98c-7.259-4.098-13.911,20.388-22.239,14.453c-8.023-5.72,4.636-25.382,7.074-31.587
			c-4.706-3.13-31.518,31.916-35.398,36.4c-2.428,2.807-8.167,6.544-9.537,9.818c-0.815,1.949-0.933,8.134-0.538,9.927
			c0.821,3.75,4.979,8.239,6.832,11.73C479.394,348.493,481.435,353.086,482.463,358 M865.155,484.352
			c-8.005-11.299,0.263-16.227,6.772-25.604c5.206-7.502,9.996-15.771,13.295-24.148c8.254-20.954,15.701-40.434,19.776-62.599
			c-5.609,2.561-9.116,12.306-11.923,17.441c-3.773,6.903-7.092,14.149-11.286,20.838c-7.848,12.518-15.553,25.869-25.536,36.718
			c-4.523,4.917-8.353,10.448-13.57,14.878c-2.385,2.023-6.945,3.686-8.702,6.216c-1.658,2.389,0.196,3.916-0.433,6.771
			c-0.646,2.928-3.608,6.049-4.88,8.869c-1.669,3.703-3.224,7.414-5.087,11.036c-2.032,3.948-2.587,6.013-3.135,9.873
			c-0.6,4.22,1.237,4.657-2.448,8.546c6.678,2.944,13.355,5.889,20.033,8.833c2.253,0.994,4.507,1.987,6.761,2.981
			c0.475-0.891,0.95-1.781,1.425-2.672c1.835-1.782,3.522-6.178,4.573-8.532C855.178,503.972,860.133,494.108,865.155,484.352
			 M220.32,436.92c-18.96,49.918,47.668,91.949,88.683,101.246c5.682,1.286,11.225,2.973,16.88,4.354
			c6.166,1.508,11.642,1.208,17.796,1.839c4.896,0.5,7.23,4.284,11.845,5.327c7.71,1.741,7.238-4.053,7.791-10.262
			c2.34-26.325,15.775-51.724,29.995-73.69c-6.496-2.323-12.932-4.859-19.344-7.403c-5.486-2.179-13.889-8.3-19.787-8.624
			c-4.362-0.238-11.009,3.487-15.246,5.122c-7.057,2.723-14.134,5.042-21.487,6.898c-12.86,3.247-27.171,7.673-40.478,8.009
			c-3.837,0.097-14.36,1.884-17.121-0.487c-5.264-4.521,2.043-8.289,6.449-9.903c26.265-9.618,54.151-13.707,80.491-23.567
			c13.554-5.076,26.968-10.742,40.606-15.742c11.757-4.309,24.072-8.125,35.434-13.425c15.005-6.998,30.074-15.716,43.066-25.987
			c2.601-2.055,8.05-5.107,9.833-8.086c1.569-2.622,1.373-0.007,1.047-3.186c-0.233-2.284-3.027-5.378-4.177-7.536
			c-4.281-8.043-8.151-16.305-11.404-24.816c-20.727,8.89-40.444,20.99-60.866,30.49c-20.554,9.563-43.738,16.309-65.727,21.688
			c-9.359,2.29-20.119,3.015-28.701,7.54c-3.647,1.922-7.253,4.146-11.158,5.257c-1.154,2.213-2.289,2.647-3.408,1.301
			c-0.701-0.786-1.607-1.119-2.719-0.997c-2.39,0.405-4.826,1.534-7.061,2.4c-11.309,4.384-22.138,9.874-32.874,15.476
			c-5.089,2.654-10.309,5.268-15.179,8.299c-2.61,1.624-4.949,3.264-7.085,5.494C223.854,436.623,224.464,438.821,220.32,436.92
			 M646.979,140.53c4.791,0.077,9.158-2.518,14.155-2.374c7.857,0.227,14.077,6.319,18.638,12.194
			c9.023,11.625,6.723,25.648,2.189,38.657c-2.169,6.217-5.146,12.185-8.867,17.627c-3.294,4.817-9.183,9.375-11.481,14.739
			c-3.792,8.847,3.858,5.085,8.541,3.195c5.889-2.377,11.409-5.333,16.408-9.313c22.276-17.742,39.223-42.403,44.899-70.725
			c2.77-13.818,2.556-29.972-7.07-41.25c-8.799-10.313-23.99-13.682-36.977-11.77c-14.037,2.068-26.759,8.014-38.188,15.667
			c-3.32,2.224-6.36,4.651-9.479,7.138c-4.089,3.263-6.54,3.349-5.517,8.463c0.761,3.802,2.831,7.741,4.165,11.389
			C640.895,141.001,639.982,142.769,646.979,140.53 M662.256,258.331l-0.97,1.656c6.684,0.319,12.909-5.577,18.604-8.456
			c7.398-3.741,13.967-8.844,20.45-13.997c11.433-9.089,23.015-19.332,31.523-31.263c19.077-26.748,36.405-60.658,31.199-94.57
			c-5.61-36.549-37.578-50.618-71.642-45.78c-15.351,2.18-29.056,9.034-42.794,15.991c-6.925,3.508-12.77,8.058-19.113,12.462
			c-3.292,2.287-6.296,2.583-6.511,6.582c-0.162,3.013,5.047,9.827,6.455,12.557c17.249-17.596,35.838-32.153,61.887-33.053
			c30.99-1.07,49.315,28.314,49.18,56.452c-0.133,27.594-12.035,54.139-31.009,73.97c-8.622,9.013-16.843,16.245-27.431,22.823
			c-5.278,3.279-9.171,6.223-15.072,8.4c-4.174,1.542-3.739,0.729-4.804,4.593C661.305,249.979,662.229,254.926,662.256,258.331
			 M493.864,633.241c-0.402,4.973-1.413,9.868-2.538,14.719c-0.404,1.742-2.679,7.241-2.28,9.199
			c0.659,3.236-0.218,1.155,2.618,2.845c2.958,1.763,6.402,1.655,9.641,2.191c2,0.33,9.325,3.777,10.557,3.233
			c2.153-0.951,2.085-4.308,4.448-5.638c3.22-1.813,7.965-0.26,11.003,1.158c8.12,3.788,13.699,11.629,21.557,15.921
			c13.954,7.62,30.512,11.84,46.079,13.58c8.434,0.943,17.063,2.599,25.393,0.623c6.563-1.558,15.091-1.414,18.658-8.455
			c-31.701-8.719-80.087-19.387-92.621-55.767c-6.813,6.178-18.201,2.851-26.436,1.997c-9.059-0.938-17.153-0.72-25.438-4.849
			C493.898,627.246,493.713,629.94,493.864,633.241 M213.185,407.923c14.923,0.901,29.07-6.16,38.254-18.076
			c2.261-2.935,4.578-5.93,5.936-9.406c0.295-0.881,0.588-1.764,0.882-2.645c1.425-2.434,0.801-3.581-1.87-3.444
			c-1.505-2.063-5.32-2.758-4.235-6.498c0.818-2.822,3.834-2.869,6.456-3.756c-1.305-2.194-2.086-3.295-3.955-5.247
			c-4.858,4.37-13.672,12.945-17.086,2.907c-1.639-4.818,1.247-9.425,0.532-14.073c-0.294-1.922-2.731-6.833-4.144-7.983
			c-7.523-6.125-18.359-3.59-26.34,0.015c-5.501,2.485-6.685,3.651-7.582,9.348c-0.912,5.792-1.757,11.581-2.769,17.356
			c3.301-1.72,3.903-5.437,6.055-8.112c0.806,1.469,1.613,2.938,2.422,4.406c1.136-0.637,2.197-0.604,3.182,0.103
			c1.593,2.448,0.59,6.08,0.101,8.647c5.312-0.495,7.557,5.431,2.202,7.831c-5.547,2.486-8.049-4.292-8.237-8.683
			c-2.069,2.473-4.195,1.149-5.638,2.42c-1.442,1.27-2.01,3.917-2.523,6.815c-0.843,4.763-3,11.636-1.004,16.414
			C196.785,403.359,206.232,407.052,213.185,407.923 M645.61,179.975c-4.938,6.867-13.356,15.856-15.117,24.152
			c5.438-3.192,16.938-18.549,19.9-6.315c1.7,7.022-7.021,15.389-9.164,22.188c8.576-2.822,14.686-11.66,20.038-18.481
			c6.823-8.697,13.79-20.162,15.532-31.22c1.409-8.949-4.799-17.29-14.023-18.167c-4.712-0.449-9.631,0.299-14.184,1.392
			c-2.075,0.498-5.172,1.115-7.024,2.228c-2.326,1.396-2.645,4.667-4.836,1.946c-2.911,5.487-5.822,10.975-8.733,16.46
			c2.897-1.051,8.809-5.513,11.975-5.052C644.598,169.781,645.548,176.497,645.61,179.975 M183.28,45.645
			c-12.945,0.381-26.476,3.138-38.731,7.236c-3.043,1.019-15.882,4.641-13.178,9.892c1.787,3.471,11.422-1.434,14.335-2.251
			c12.483-3.506,25.338-5.818,38.125-7.928c3.097-0.511,13.6-0.46,14.142-4.519C198.636,43.122,186.936,45.639,183.28,45.645
			 M535.593,610.466c-7.017,0.857-13.754,0.537-20.777-0.323c-5.91-0.723-11.93-3.143-17.811-3.143c0,6.295-0.427,6.335,6.215,7.683
			c4.636,0.94,9.338,1.469,14.022,2.124c8.249,1.153,17.407,4.391,25.757,2.728c-0.202-1.093-0.842-8.471-1.707-9.2
			C540.805,609.925,536.302,610.473,535.593,610.466 M422.19,144.677c1.962,1.25,6.472,6.235,8.809,6.323
			c-0.834-5.771-7.273-15.819-14.667-12.253c-1.812,0.875-5.618,5.229-3.896,7.15C413.355,146.924,419.786,144.684,422.19,144.677
			 M353.781,196.017c0.071-1.006,0.144-2.011,0.218-3.017c-2.713,1.595-6.072,2.35-8,4.92c2.314,1.025,4.628,2.053,6.943,3.08
			C353.222,199.339,353.502,197.678,353.781,196.017 M567.457,349.235c12.819,4.489,24.571,10.484,34.007,20.662
			c8.155,8.8,11.989,24.307,13.979,35.843c4.927,28.545-4.579,55.004-10.848,82.313c-3.18,13.854-7.927,27.185-12.372,40.679
			c-3.881,11.784-7.208,24.125-12.565,35.33c-4.542,9.501-10.346,18.868-14.342,28.725c-2.149,5.305-5.635,23.506-13.797,17.79
			c-2.227,5.823-2.768,5.327-0.387,9.372c1.724,2.928,7.568,6.993,10.327,9.378c7.35,6.356,16.66,11.594,25.283,16.044
			c15.794,8.151,32.725,14.25,48.989,21.681c7.19,3.288,14.988,7.172,13.374,16.578c-1.351,7.886-5.914,13.866-13.031,17.375
			c-6.681,3.295-16.238,5.838-23.589,6.871c-4.361,0.613-5.361-1.201-8.917-1.828c-3.957-0.697-8.575,0.65-12.658,0.616
			c-18.326-0.16-34.371-4.771-49.181-15.398c-5.292-3.798-13.083-14.1-20.008-14.099c-3.541,0-2.794,2.15-5.908,3.413
			c-3.843,1.557-10.464-1.382-14.242-2.072c-8.049-1.469-16.234-2.961-21.595-9.894c-5.795-7.492-3.734-16.773-1.244-25.093
			c2.807-9.38,7.529-18.895,9.537-28.415c0.488-2.316,0.938-6.633,0.442-8.989c-0.771-3.656-4.463-5.838-4.573-9.796
			c-0.035-1.204,1.688-2.792,1.99-4.035c0.665-2.729,0.563-5.563,0.836-8.341c0.489-4.955,1.619-9.704,2.398-14.601
			c1.772-11.146,5.268-21.087,8.651-31.826c3.281-10.422,6.405-18.178,12.752-27.201c3.285-4.674,14.274-21.324,8.907-26.116
			c-7.345,14.428-15.935,25.68-27.175,37.165c-8.599,8.787-17.004,20.598-27.765,26.854c-11.831,6.88-26.289,10.928-39.354,14.565
			c-6.214,1.729-11.37,5.565-18.068,6.274c-7.261,0.768-14.65-0.138-21.76-1.756c-2.002-0.456-7.774-3.531-9.586-3.336
			c-2.668,0.291-6.506,5.046-9.434,5.92c-7.127,2.125-11.994-1.936-17.4-5.689c-5.866-4.073-7.642-5.086-14.411-5.576
			c-8.293-0.6-16.357-3.522-24.513-5.312c-14.34-3.146-26.528-9.522-39.563-16.197c-14.941-7.649-27.722-18.198-38.983-30.66
			c-16.555-18.321-39.611-69.088-12.567-86.863c-15.92-2.162-30.502-9.114-32.442-27.134c-1.014-9.43,0.895-19.874,3.266-28.963
			c1.082-4.15,2.372-8.273,3.608-12.381c0.931-1.387,1.424-2.905,1.475-4.554c0.571-2.137-0.253-3.202-2.471-3.192
			c-4.193-4.903-7.346-9.231-8.193-16.193c-0.267-2.206-0.505-5.588,1.064-7.464c0.727-0.754,1.603-1.258,2.626-1.511
			c2.457,0.14,3.152-1.07,2.083-3.631c1.193-3.628-0.576-6.455,3.92-7.97c1.441,0.307,2.876,0.643,4.306,1.005
			c1.824,0.832,3.01,0.229,3.562-1.802c4.236-1.658,2.282-4.109,8.038-1.976c3.484,1.292,6.798,3.514,9.334,6.222
			c3.183-2.042-4.054-14.668-4.296-18.696c-0.572-9.495,3.353-17.345,8.46-25.144c9.927-15.155,23.783-28.188,37.447-39.914
			c26.173-22.456,53.667-43.834,83.219-61.725c-12.19-8.467-26.434-10.762-40.939-6.827c-13.373,3.628-24.213,10.216-36.523,15.98
			c-11.403,5.337-23.508,7.53-27.145-7.036c-4.074-16.314,8.924-22.371,20.583-29.687c-2.911-2.171-12.495-0.619-16.121-0.362
			c-8.074,0.57-15.795,2.394-23.642,4.005c-3.763,0.772-7.22,0.599-10.948,1.355c-5.542,1.125-11.328,2.385-16.936,3.988
			c-13.34,3.815-26.581,9.605-38.108,17.407c-9.963,6.74-16.875,16.256-24.902,25.022c-9.155,9.994-17.926,19.828-31.498,23.486
			c-6.355,1.713-13.81,3.269-18.315-2.408c-4.192-5.278-4.425-11.638-4.288-18.092c0.303-14.254,7.189-29.658,15.2-41.306
			c8.695-12.644,20.34-19.885,31.344-30.062c-15.904,1.137-31.274,9.521-45.9,15.315c-3.078,1.22-6.185,2.591-9.28,3.72
			c-3.3,1.204-5.486,0.466-8.648,1.018c-7.216,1.259-13.413,4.3-20.432-0.548c-13.279-9.171,0.025-27.828,9.167-33.553
			C59.505,98.01,72.46,91.297,86.488,85.61c-7.595-8.238-1.108-19.994,5.892-25.838c8.858-7.395,20.136-11.633,30.809-15.591
			c8.441-3.131,16.73-6.137,25.499-8.021c9.217-1.98,19.996-5.006,29.349-4.716c8.771,0.272,16.549-1.273,25.434-1.52
			c7.392-0.206,14.801-0.028,22.191-0.219c19.886-0.514,39.846,0.827,59.281,2.257C269.545-13.067,370.973,0.839,392.611,6.72
			c19.665,5.346,42.197,11.547,58.715,24.23c6.997,5.372,13.644,11.48,19.853,17.748c9.16,9.248,14.231,21.358,19.076,33.311
			c12.29-6.021,24.04-12.581,37.487-15.566c12.795-2.84,25.901-6.688,38.771-8.834c9.786-1.631,23.988-2.738,32.224,4.171
			c8.943,7.504,13.604,19.183,18.942,29.184c25.641-24.329,54.24-42.078,90.796-40.897c35.772,1.155,59.296,32.046,63.632,65.521
			c4.777,36.885-11.653,75.428-33.926,103.992c-9.986,12.811-20.32,25.182-33.763,34.739c-6.666,4.737-13.698,9.928-21.007,13.626
			c-3.645,1.844-7.63,3.51-11.457,4.929c-1.726,0.64-3.504,1.283-5.3,1.717c-5.128,1.244-4.132-0.417-6.039,4.073
			c-1.548,3.645-1.357,9.915-2.02,13.916c-0.757,4.572-1.207,9.207-2.313,13.717c-1.915,7.817-3.909,15.442-6.309,23.076
			c-4.542,14.447-10.653,29.008-18.14,42.187c6.349,2.758,15.24,3.035,22.025,3.871c7.343,0.903,14.696,2.804,22.324,4.936
			c15.285,4.274,28.942,7.882,43.477,14.279c15.089,6.643,28.537,16.561,43.065,24.454c13.36,7.259,26.865,16.351,39.273,25.065
			c2.951,2.072,4.779,3.875,7.13,6.501c2.404,2.682,3.169,3.207,6.042,5.531c1.296,1.047,5.063,6.331,6.542,6.525
			c2.648,0.352,2.242-1.625,4.321-4.386c4.342-5.763,10.397-10.227,14.709-16.134c3.596-4.927,7.347-9.916,11.189-14.151
			c9.303-10.253,17.01-21.616,23.623-33.907c3.441-6.398,7.065-12.488,10.803-18.526c3.722-6.013,10.337-13.947,17.747-13.592
			c-0.596-3.062-2.489-3.571,0.778-5.442c2.104-1.207,6.2,0.736,7.822,1.961c4.292,3.244,4.482,9.536,4.212,14.263
			c-0.697,12.182-3.246,24.205-6.8,35.723c-4.27,13.847-9.621,26.063-15.462,39.276c-4.65,10.527-10.424,24.448-21.995,29.253
			c7.771,11.095,4.039,20.137-1.154,31.917c-3.797,8.611-8.811,17.51-16.447,23.208c-8.609,6.425-17.945,0.975-26.949-3.271
			c-5.438-2.565-22.066-8.618-18.685-16.512c-4.154-0.554-6.767-3.571-10.548-4.5c-4.003-0.982-3.315,0.644-7.551,1.253
			c-3.247,0.466-8.104-2.441-11.161-3.482c-5.107-1.737-10.199-3.519-15.3-5.275c-14.355-4.944-28.469-9.813-42.965-13.773
			c-26.973-7.37-54.279-11.551-81.157-18.132c-5.388-1.319-10.745-2.593-16.355-3.649c-1.158-0.218-7.168-0.553-7.898-1.792
			c-1.279-2.174,2.652-14.334,2.99-16.813c2.216-16.268,1.491-34.076-1.63-50.158c-1.295-6.686-7.085-15.343-7.035-21.869
			c0.035-4.378,3.915-9.158,6.192-13.124c5.634-9.805,11.537-20.399,15.711-30.604c6.39-15.609,10.304-33.229,13.126-49.948
			c1.47-8.715,3.181-18.164,3.581-26.981c0.305-6.72-0.246-13.77,0.729-20.652c-3.72,0.353-8.982,2.28-12.332,0.217
			c-4.231-2.604-5.367-10.036-4.827-14.475c-14.485,2.528-14.005-11.209-13.107-21.952c-26.182,0,7.348-38.904,11.536-47.259
			c1.926-3.84,1.868,0.474,1.019-5.466c-0.374-2.612-2.158-5.505-3.168-7.906c-2.2-5.242-4.58-10.403-7.12-15.487
			c-5.368-10.74-11.449-21.118-18.086-31.123c-5.974,4.163-11.359,9.09-16.349,14.378c3.2-8.37,12.979-18.739,8.797-28.243
			c-3.877-8.81-16.823-8.199-24.47-6.588c-20.776,4.38-40.703,10.761-60.496,18.147c6.132,3.516,15.519,0.8,21.61-1.888
			c7.543-3.33,15.655-6.823,23.784-8.586c7.091-1.539,16.403-1.014,14.354,8.536c-1.661,7.738-9.23,15.19-14.224,20.976
			c-11.003,12.748-24.8,22.615-38.353,32.475c-14.567,10.6-28.604,22.116-43.356,32.407c-26.667,18.605-55.34,34.776-82.892,52.143
			c-14.317,9.024-30.541,16.286-46.067,22.974c-17.08,7.358-33.456,15.234-51.177,21.045c-9.841,3.228-19.594,5.884-29.265,9.557
			c-6.062,2.301-16.616,6.912-20.62,0.079c-8.134-13.878,21.3-32.13,29.365-40.615c5.564,5.404-21.875,25.542-19.728,33.41
			c1.688,6.183,8.215-1.801,11.366-3.486c5.094-2.724,11.126-4.093,16.244-7.201c10.499-6.375,22.947-13.725,25.345-26.902
			c-1.668-1.761-1.647-3.385,0.063-4.875c0.761-0.905,1.365-1.899,1.81-2.984c0.747-2.07,1.048-4.664,1.447-6.859
			c1.183-6.49-1.784-12.566,0.988-18.917c-16.181,12.26-31.734,26.109-47.094,39.382c-13.777,11.905-28.153,27.493-33.216,45.257
			c-0.648,2.276-1.726,4.858-1.608,7.26c0.231,4.715,0.702,3.699,4.5,5.215c3.8,1.516,9.333,1.386,13.419,1.547
			c2.329,0.09,12.731-2.375,10.663,2.735c-1.191,2.946-8.403,2.835-10.985,3.107c-6.479,0.685-9.994-0.018-6.924,7.006
			c1.376,3.147,4.164,5.28,6.352,7.717c6.087,6.779,9.393,17.176,14.18,25.14c5.456,9.072,11.452,17.701,17.823,26.151
			c2.63,3.486,6.144,10.038,9.789,12.526c3.402,2.323-0.602,2.132,5.051,1.188c2.465-0.41,4.698-2.014,7.055-2.587
			c14.093-3.434,28.579-7.304,43.153-11.541c18.642-5.421,38.205-10.043,55.991-17.849c15.933-6.996,31.748-15.322,47.848-22.406
			c4.701-2.067,9.397-3.438,13.052-7.244c4.411-4.592,8.063-10.604,12.132-15.54c6.918-8.396,13.295-16.937,20.742-24.894
			c5.544-5.92,15.368-16.927,23.189-19.29c14.86-4.489,6.906,18.146,4.985,23.867c3.493,0.792,5.329-3.688,9.43-2.399
			c4.908,1.544,5.417,8.073,6.031,12.163c0.162,1.09-1.313,3.127-0.864,4.099c0.152,0.332,3.355,2.226,3.974,3.104
			c2.243,3.189,1.802,7.067,0.951,10.506c-4.397,17.814-20.028,30.823-31.525,43.964c5.144-0.974,8.956-3.904,13.811-5.357
			c4.558-1.363,9.139-1.292,13.731-1.683c4.809-0.409,9.429-2.209,14.349-2.3C557.394,347.182,562.337,348.652,567.457,349.235"/>
		<path id="ink-layer_1_" fill="#2F3937" d="M23.736,189c-2.835,1.853-3.634,3.671-3.732,7.946
			c-0.039,1.753,0.082,8.294,2.532,8.047C24.836,204.762,23.736,191.249,23.736,189 M9.092,199.653
			c1.321-13.702,6.333-27.632,18.125-36.169c2.916-2.111,6.215-2.036,9.411-3.368c1.921-0.8,4.956-4.52,7.136-4.08
			c8.027,1.624-1.247,12.29-2.605,15.096c-4.208,8.692-3.924,16.331-3.798,25.708c0.096,7.127,1.576,19.142-2.017,25.593
			c-3.83,6.869-12.138,2.409-16.774-1.657C12.718,215.644,8.298,207.471,9.092,199.653"/>
		<path id="ink-layer_2_" fill="#2F3937" d="M150.01,240.142c0,7.646,6.206,2.47,5.984-2.968
			C155.669,229.167,149.72,234.097,150.01,240.142 M183,197.876c-6.792,6.108-12.031,9.535-13.34,18.927
			c-0.991,7.114-0.005,14.16,0.037,21.326c0.071,12.012-9.629,24.641-20.067,10.871c-7.614-10.043-4.883-25.835,1.326-35.929
			c3.258-5.296,7.91-10.534,13.282-13.835C168.278,196.753,179.646,191.866,183,197.876"/>
		<path id="ink-layer_3_" fill="#2F3937" d="M88.151,383c-0.788,1.863-2.636,9.469,1.135,7.749
			C92.616,389.229,90.459,384.188,88.151,383 M68.224,359.518c-0.582-2.86-0.345-20.79,4.594-19.446
			c3.879,1.054,4.52,10.232,6.101,13.427c5.885,11.894,19.392,19.302,24.05,31.579c5.199,13.71-10.52,14.136-18.86,8.584
			C74.231,387.087,68.517,370.99,68.224,359.518"/>
		<path id="ink-layer_4_" fill="#2F3937" d="M56.117,286c2.143-2.894,2.36-4.44,1.138-7C55.693,280.699,55.97,283.126,56.117,286
			 M57.667,298.945c-11.173,1.251-11.733-19.341-9.819-26.411c1.523-5.63,4.8-11.681,8.172-16.269
			c0.681-0.926,7.142-9.245,8.408-9.265c4.859-0.077,3.524,5.414,3,7.458c-1.651,6.439-2.305,11.822-1.861,18.962
			C66.044,281.062,69.662,299.199,57.667,298.945"/>
		<path id="ink-layer_5_" fill="#2F3937" d="M565,120.618c-15.977,13.398-31.146,27.905-48.518,39.625
			c-8.501,5.735-17.388,10.81-25.871,16.639c-4.32,2.969-8.729,5.626-13.521,7.809c-4.233,1.928-7.002,2.179-3.489-2.397
			c2.349-3.057,7.611-5.188,10.811-7.36c4.922-3.346,9.571-7.059,14.749-10.028c9.128-5.237,18.201-9.464,26.615-15.887
			c7.469-5.698,15.174-11.263,22.302-17.319C551.134,129.102,561.27,117.178,565,120.618"/>
		<path id="ink-layer_6_" fill="#2F3937" d="M565.323,169c7.185,6.146-10.792,22.984-14.893,26.8
			c-4.323,4.024-9.084,7.615-13.786,11.18c-1.654,1.256-10.685,9.659-12.977,8.98c-4.522-1.339,1.415-6.791,2.959-8.212
			c4.993-4.603,10.093-9.072,14.975-13.799c4.403-4.26,9.171-8.206,13.429-12.603C558.48,177.783,561.378,171.746,565.323,169"/>
		<path id="ink-layer_7_" fill="#2F3937" d="M33,416.757c-1.876-4.349-5.236,0.479-3.533,2.648
			C31.078,421.461,32.759,417.591,33,416.757 M22,408.172c1.005-6.392,3.33-9.944,9.326-4.488
			c4.121,3.75,12.408,14.41,11.622,20.222c-1.032,7.624-9.429,5.46-13.781,1.475C24.705,421.294,22.735,413.84,22,408.172"/>
		<path id="ink-layer_8_" fill="#2F3937" d="M35.14,533.975c-7.346-0.559-13.612-6.198-16.732-12.808
			c-2.625-5.559-5.109-14.518,4.112-11.596C28.529,511.476,51.697,534.871,35.14,533.975"/>
		<path id="ink-layer_9_" fill="#2F3937" d="M124.164,497.74c-5.676,1.293-11.292-2.446-14.783-6.662
			c-2.172-2.626-7.228-11.831-4.68-15.62c3.55-5.284,8.911,5.338,10.759,7.441C118.36,486.191,127.844,492.49,124.164,497.74"/>
		<path id="ink-layer_10_" fill="#2F3937" d="M129.276,354c-4.449-2.065-8.581-4.551-10.37-9.483
			c-1.138-3.142-2.094-12.561,2.96-12.517C127.711,332.052,141.098,353.057,129.276,354"/>
		<path id="ink-layer_11_" fill="#2F3937" d="M98.079,256.002c5.958-0.107,7.369,3.178,8.197,7.9
			c0.563,3.204,3.292,14.081,0.457,16.309c-4.05,3.184-10.492-4.111-11.794-6.975C92.255,267.34,95.966,261.541,98.079,256.002"/>
		<path id="ink-layer_12_" fill="#2F3937" d="M200.458,582.138c2.901,1.32,9.501,4.248,6.979,8.789
			c-2.637,4.75-10.208,0.134-13.036-1.941c-1.184-0.869-8.707-6.558-8.392-8.465C186.673,576.467,197.042,581.758,200.458,582.138"
			/>
		<path id="ink-layer_13_" fill="#2F3937" d="M9.326,285.508c1.982,4.964,4.214,22.019-6.225,12.809
			c-3.186-2.811-3.667-6.321-2.569-10.18C2.119,282.545,4.429,283.653,9.326,285.508"/>
		<path id="ink-layer_14_" fill="#2F3937" d="M562.537,222c-2.312-4.723,3.396-7.769,6.445-10.813
			c1.992-1.989,10.364-12.772,13.109-12.163C587.738,200.278,565.314,219.894,562.537,222"/>
		<path id="ink-layer_15_" fill="#2F3937" d="M98.004,564.086c5.447-0.874,6.718,5.176,10.227,7.813
			c1.505,1.132,6.671,2.126,5.632,4.527C111.133,582.733,97.737,568.326,98.004,564.086"/>
		<path id="ink-layer_16_" fill="#2F3937" d="M144,421.192c3.744-1.567,14.55,6.852,11.447,10.488
			C150.809,437.121,144.264,424.169,144,421.192"/>
		<path id="ink-layer_17_" fill="#2F3937" d="M222.917,542.985c-2.729,0.271-14.246-3.349-9.979-8.196
			C215.934,531.386,223.896,539.903,222.917,542.985"/>
		<path id="ink-layer_18_" fill="#2F3937" d="M85,519.729c-2.709,1.083-12.481-1.146-9.409-5.39
			C78.518,510.299,85.004,516.374,85,519.729"/>
		<path id="ink-layer_19_" fill="#2F3937" d="M165,538.036c3.167-0.328,5.456,1.582,6,4.816
			C167.038,543.417,165.816,542.475,165,538.036"/>
		<path id="ink-layer_20_" d="M577,68.49c1.339,0.006,2.674,0.013,4,0.02C579.66,68.502,578.331,68.497,577,68.49"/>
		<path id="ink-layer_21_" d="M556,346.996c-2.001,0.002-4.001,0.006-6,0.008C552.001,347,554.001,346.998,556,346.996"/>
		<path id="ink-layer_22_" fill="#2F3937" d="M283.139,21c-0.092,2.002-0.184,4.004-0.277,6
			C282.951,24.996,283.045,22.997,283.139,21"/>
		<path id="ink-layer_23_" fill="#2F3937" d="M902.806,361c0.639,2.225-0.296,2.594-2.806,1.105
			C900.935,361.737,901.87,361.369,902.806,361"/>
		<path id="ink-layer_24_" fill="#2F3937" d="M846,535.49c1.004,0.006,2.008,0.014,3,0.02
			C847.993,535.504,846.997,535.496,846,535.49"/>
		<path id="ink-layer_25_" fill="#2F3937" d="M656,374.525c-1.677,1.277-3.345,1.458-5-0.068
			C652.667,374.481,654.333,374.503,656,374.525"/>
		<path id="ink-layer_26_" fill="#2F3937" d="M618.564,204c-0.042,1.669-0.085,3.337-0.129,5
			C618.478,207.329,618.521,205.665,618.564,204"/>
		<path id="ink-layer_27_" fill="#2F3937" d="M705,49.7c-1.667-0.001-3.335-0.003-5-0.005C701.668,49.071,703.335,49.276,705,49.7"
			/>
		<path id="ink-layer_28_" fill="#2F3937" d="M216,29.353c-1.666,0.098-3.334,0.196-5,0.294
			C212.666,29.549,214.334,29.451,216,29.353"/>
		<path id="ink-layer_29_" fill="#2F3937" d="M257,29.67c-1.333-0.113-2.668-0.227-4-0.34C254.332,29.443,255.665,29.557,257,29.67"
			/>
		<path id="ink-layer_30_" fill="#2F3937" d="M279,31.255c-1.333,0.497-2.666,0.791-4,0.007
			C276.334,31.26,277.667,31.257,279,31.255"/>
		<path id="ink-layer_31_" fill="#2F3937" d="M160,33.993c-1.668,0.339-3.334,0.678-5,1.014
			C156.668,34.671,158.334,34.332,160,33.993"/>
		<path id="ink-layer_32_" fill="#2F3937" d="M619.568,441c-0.047,1.002-0.093,2.003-0.137,3
			C619.479,442.997,619.523,441.998,619.568,441"/>
		<path id="ink-layer_33_" fill="#2F3937" d="M68.472,360c0.02,0.668,0.039,1.336,0.057,2C68.507,361.33,68.491,360.666,68.472,360"
			/>
		<path id="ink-layer_34_" fill="#2F3937" d="M909,356.412l-5,0.025C905.662,355.196,907.33,355.354,909,356.412"/>
		<path id="ink-layer_35_" fill="#2F3937" d="M567,349.33c-1.335-0.22-2.668-0.44-4-0.66C564.332,348.89,565.667,349.11,567,349.33"
			/>
		<path id="ink-layer_36_" fill="#2F3937" d="M201,581.987c-1.667-0.324-3.333-0.65-5-0.975L201,581.987z"/>
		<path id="ink-layer_37_" fill="#2F3937" d="M537.546,295c-0.031-1.001-0.062-2.002-0.092-3
			C537.484,293.001,537.515,294.001,537.546,295"/>
		<path id="ink-layer_38_" fill="#2F3937" d="M221,29.685c-1-0.123-2-0.246-3-0.369C219,29.438,220,29.562,221,29.685"/>
		<path id="ink-layer_39_" fill="#2F3937" d="M385,4.955c-1-0.303-2.001-0.606-3-0.909C383,4.349,384,4.651,385,4.955"/>
		<path id="ink-layer_40_" fill="#2F3937" d="M504,679.439c0.669,0.041,1.339,0.082,2,0.121
			C505.328,679.52,504.663,679.479,504,679.439"/>
		<path id="ink-layer_41_" fill="#2F3937" d="M45,142.46c1.004,0.026,2.008,0.053,3,0.08C46.991,142.513,45.996,142.486,45,142.46"
			/>
		<path id="ink-layer_42_" fill="#2F3937" d="M716,50.676c-1.667-0.117-3.333-0.234-5-0.352
			C712.668,50.442,714.333,50.559,716,50.676"/>
		<path id="ink-layer_43_" fill="#2F3937" d="M189,45.994c-2.339,0.004-4.675,0.008-7,0.012
			C184.344,46.002,186.672,45.998,189,45.994"/>
		<path id="ink-layer_44_" fill="#2F3937" d="M661.452,252c0.03,1.669,0.063,3.338,0.096,5
			C661.518,255.33,661.488,253.665,661.452,252"/>
		<path id="ink-layer_45_" fill="#2F3937" d="M539,610.032c-1.338-0.021-2.674-0.042-4-0.064
			C536.341,609.986,537.67,610.01,539,610.032"/>
		<path id="ink-layer_46_" fill="#2F3937" d="M681,80.194c2-0.222,3.999-0.444,6-0.666C685.08,81.226,683.007,80.096,681,80.194"/>
		<path id="ink-layer_47_" fill="#2F3937" d="M528,610.556c-1.003-0.038-2.006-0.075-3-0.111
			C526.007,610.482,527.003,610.519,528,610.556"/>
		<path id="ink-layer_48_" fill="#2F3937" d="M493.424,628c0.05,1.67,0.102,3.338,0.152,5
			C493.527,631.327,493.475,629.664,493.424,628"/>
		<path id="ink-layer_49_" fill="#2F3937" d="M646,141.598c1.334-0.124,2.668-0.248,4-0.371
			C648.782,142.165,647.354,141.616,646,141.598"/>
		<path id="ink-layer_50_" fill="#2F3937" d="M209,407.633c1.333,0.246,2.668,0.49,4,0.734
			C211.667,408.123,210.333,407.879,209,407.633"/>
		<path id="ink-layer_51_" fill="#2F3937" d="M417,144.504c1.664-1.418,3.331-1.264,5-0.016
			C420.333,144.492,418.667,144.498,417,144.504"/>
		<path id="ink-layer_52_" fill="#2F3937" d="M354.427,195c0.048-0.667,0.095-1.334,0.146-2
			C354.527,193.668,354.477,194.334,354.427,195"/>
		<path id="ink-layer_53_" fill="#2F3937" d="M645.479,176c0.015,1.335,0.027,2.671,0.043,4
			C645.508,178.661,645.494,177.331,645.479,176"/>
		<path id="ink-layer_54_" fill="#2F3937" d="M204.284,385.031c2.194,0.744,6.607,2.991,9.164,2.693
			c2.046-0.24,3.734-2.728,5.708-2.725c5.315,0.007,4.33,6.151,1.762,9.449C213.972,403.37,198.453,393.696,204.284,385.031"/>
		<path id="ink-layer_55_" fill="#2F3937" d="M225.977,353c7.248,1.871,3.638,17.814-2.455,18.91
			c-7.175,1.291-8.425-11.672-7.007-16.357c3.692,2.193,1.406,10.02,6.059,7.856C225.533,362.031,225.083,355.666,225.977,353"/>
	</g>
</g>
</svg>
